<?xml version="1.0" standalone="no"?>
<!DOCTYPE svg PUBLIC "-//W3C//DTD SVG 20010904//EN"
 "http://www.w3.org/TR/2001/REC-SVG-20010904/DTD/svg10.dtd">
<svg version="1.0" xmlns="http://www.w3.org/2000/svg"
 width="512.000000pt" height="512.000000pt" viewBox="0 0 512.000000 512.000000"
 preserveAspectRatio="xMidYMid meet">
<metadata>
Created by potrace 1.14, written by Peter Selinger 2001-2017
</metadata>
<g transform="translate(0.000000,512.000000) scale(0.100000,-0.100000)"
fill="#000000" stroke="none">
<path d="M2358 4593 l-208 -3 0 -200 0 -200 80 0 80 0 0 -99 0 -100 -57 -11
c-151 -29 -357 -100 -473 -161 l-54 -29 -173 172 -173 173 -177 -178 -178
-177 153 -153 153 -153 -22 -20 c-32 -29 -141 -170 -187 -245 -98 -156 -181
-363 -224 -559 -20 -93 -23 -131 -22 -340 0 -205 3 -248 22 -334 171 -768 792
-1307 1558 -1355 504 -31 968 148 1320 510 401 413 564 983 443 1548 -56 257
-176 502 -353 720 l-69 83 149 149 149 149 -178 177 -177 178 -172 -171 -173
-171 -95 47 c-113 58 -274 113 -399 136 l-91 18 0 98 0 98 80 0 80 0 0 205 0
205 -202 -2 c-112 -2 -296 -4 -410 -5z m418 -1008 c261 -45 488 -161 680 -347
246 -238 378 -534 391 -878 23 -632 -405 -1178 -1030 -1312 -133 -28 -359 -30
-490 -4 -400 78 -732 326 -914 682 -104 203 -148 405 -140 634 6 148 22 236
68 374 144 432 538 768 994 850 109 19 331 20 441 1z"/>
<path d="M2882 2848 l-272 -273 -57 -2 c-178 -8 -294 -178 -237 -345 33 -98
118 -162 230 -174 79 -8 148 20 207 86 48 53 67 103 67 176 l0 49 275 275 275
275 -102 102 c-57 57 -105 103 -108 103 -3 0 -128 -123 -278 -272z"/>
</g>
</svg>
